<svg t="1632294076204" class="icon" viewBox="0 0 1024 1024" version="1.1" xmlns="http://www.w3.org/2000/svg" p-id="3484" width="200" height="200"><path d="M639.488 863.232H198.144c-8.704 0-15.36-6.656-15.36-15.36V362.496c0-111.104 90.624-201.728 201.728-201.728h441.344c8.704 0 15.36 6.656 15.36 15.36v485.888c-0.512 111.104-91.136 201.216-201.728 201.216z m-425.984-30.72h425.472c93.696 0 170.496-76.288 171.008-170.496V191.488H384.512c-94.208 0-171.008 76.288-171.008 171.008v470.016z" p-id="3485"></path><path d="M512 672.256c-8.704 0-15.36-6.656-15.36-15.36V367.104c0-8.704 6.656-15.36 15.36-15.36s15.36 6.656 15.36 15.36v290.304c0 8.192-6.656 14.848-15.36 14.848z" p-id="3486"></path><path d="M656.896 527.36H367.104c-8.704 0-15.36-6.656-15.36-15.36s6.656-15.36 15.36-15.36h290.304c8.704 0 15.36 6.656 15.36 15.36s-7.168 15.36-15.872 15.36z" p-id="3487"></path></svg>