<svg t="1632641546730" class="icon" viewBox="0 0 1024 1024" version="1.1" xmlns="http://www.w3.org/2000/svg" p-id="2443" width="200" height="200"><path d="M739.530598 294.52799l0 435.029978c0 24.048719-20.48045 43.594891-44.444235 43.594891L303.417963 773.152858l0 43.425022c0 23.963785 19.800975 43.508933 43.807738 43.508933l434.795641 0c24.006763 0 44.360324-19.545148 44.360324-43.508933L826.381665 207.551056c0-24.048719-20.35356-43.636846-44.360324-43.636846L347.224678 163.91421c-24.006763 0-43.807738 19.588127-43.807738 43.636846l0 44.147476 391.669424 0C719.051171 251.698532 739.530598 270.521227 739.530598 294.52799zM588.693218 556.539402 463.561289 674.320922c-17.334807 16.315594-44.699038 15.551184-61.142545-1.86958-16.315594-17.419741-15.508205-44.783972 1.86958-61.099566l59.357899-55.916521L241.086335 555.435255c-24.006763 0-43.468001-18.951631-43.468001-43.00035 0-24.049742 19.461237-43.020816 43.468001-43.020816l222.559888 0-59.357899-56.257282c-17.377786-16.35755-18.185174-43.934628-1.86958-61.312414 8.583492-9.007141 20.055778-13.680581 31.528064-13.680581 10.621918 0 21.24486 3.823072 29.65746 11.68411l125.08895 117.653607c12.32163 11.535731 19.37528 27.767414 19.37528 44.593638C608.068498 528.836457 601.014848 545.06814 588.693218 556.539402z" p-id="2444"></path></svg>