<svg t="1632293729083" class="icon" viewBox="0 0 1024 1024" version="1.1" xmlns="http://www.w3.org/2000/svg" p-id="4338" width="200" height="200"><path d="M835.008 640.96l5.376 2.176 102.144 51.84a32 32 0 0 1 4.992 54.016l-4.992 3.072-389.248 197.952a90.688 90.688 0 0 1-73.728 3.968l-8.832-3.968-389.184-197.952a32 32 0 0 1-4.992-53.952l4.992-3.072 102.08-51.904a32 32 0 0 1 33.92 53.952l-4.928 3.072-46.016 23.36 333.12 169.472c6.272 3.2 13.184 3.84 19.776 1.92l4.864-1.92 332.992-169.472-45.952-23.36a32 32 0 0 1-16.192-37.632l2.112-5.376a32 32 0 0 1 37.696-16.192z m0.064-211.584l5.376 2.176 102.08 51.968a32 32 0 0 1 4.928 53.952l-4.928 3.072-389.12 197.888a90.24 90.24 0 0 1-73.92 3.968l-8.768-3.968-389.184-197.888a32 32 0 0 1-4.992-53.952l4.928-3.072 102.08-51.968a32 32 0 0 1 33.92 53.952l-4.864 3.072L166.592 512l333.184 169.472a26.24 26.24 0 0 0 19.712 1.92l4.864-1.984L857.344 512l-45.952-23.424a32 32 0 0 1-16.128-37.696l2.176-5.312a32 32 0 0 1 37.632-16.192zM470.72 73.92a90.752 90.752 0 0 1 82.56 0l389.248 198.016a32 32 0 0 1 0 57.024L553.28 526.912a90.752 90.752 0 0 1-82.56 0L81.408 328.96a32 32 0 0 1 0-57.024z m48.768 55.168a26.624 26.624 0 0 0-19.84 1.92L166.592 300.416l333.12 169.408c6.4 3.2 13.248 3.84 19.84 1.92l4.8-1.92 333.12-169.408-333.12-169.408z" p-id="4339"></path></svg>